<svg id="Layer_1" data-name="Layer 1" xmlns="http://www.w3.org/2000/svg" viewBox="0 0 737 114.7"><path d="M178,600V521.9l47,47.4v9.1l-25-24.6V600ZM311,495.7V600.1l-22-9.6V549.9l-41.2,41.4L231,574.6v-9.5l-47-47V495.4l63.7,63.8Z" transform="translate(-177.5 -488.9)" style="fill:#fff;stroke:#000;stroke-miterlimit:10"/><path d="M337,557.1l-8,1.8a51.5,51.5,0,0,1-1.5-18.5,47.9,47.9,0,0,1,4.8-18,43.9,43.9,0,0,1,2.7-4.7,48.9,48.9,0,0,1,26.6-20.4,48.1,48.1,0,0,1,38.4,2.9,49.3,49.3,0,0,1,15.2,12,52,52,0,0,1,9.8,16.9l-5.6,1.2A45.5,45.5,0,0,0,401.5,508l-2.6-1.7-9.1,14.1a27.7,27.7,0,0,0-37.3,12.2,26.4,26.4,0,0,0-1.6,21.1,27.2,27.2,0,0,0,9.2,13.2l-8.4,12.9a40.1,40.1,0,0,1-7.7-7.7,37.3,37.3,0,0,1-6.1-12.3Zm86.8-21.4a53.3,53.3,0,0,1,1.3,18.4A52.3,52.3,0,0,1,420,572a49.9,49.9,0,0,1-67.6,22.2,50.5,50.5,0,0,1-15.2-11.9,52,52,0,0,1-9.7-16.8l5.3-1a45.7,45.7,0,0,0,6.4,11.4,44.2,44.2,0,0,0,11.6,10.8l2.7,1.8,9.1-14.4a27,27,0,0,0,21.2,1.5,26.4,26.4,0,0,0,14.7-11.3l1.5-2.5a26.7,26.7,0,0,0,1.5-21.1,27.7,27.7,0,0,0-9-13.1l8.2-12.7a40.3,40.3,0,0,1,13.8,19.9l.9,2.7Z" transform="translate(-177.5 -488.9)" style="fill:#ac8add;stroke:#000;stroke-miterlimit:10"/><path d="M481,509v33h8v57H466V524H433V501h23v8Zm-19-15h65l-9.1,23H495v19h-8V502H462Z" transform="translate(-177.5 -488.9)" style="fill:#fff;stroke:#000;stroke-miterlimit:10"/><path d="M552,520v29h6v51.1l-23-9.7V520Zm-10-25h22v47h-6V514H542Z" transform="translate(-177.5 -488.9)" style="fill:#fff;stroke:#000;stroke-miterlimit:10"/><path d="M638.2,545.9,621,583.5l4.3,9.5-4.3,9.4L572.5,497h24.9L621,548.4l9.1-19.9ZM652.9,495h24.9l-44.2,96.1-4.4-9.4,17.3-37.8-8.1-17.4Z" transform="translate(-177.5 -488.9)" style="fill:#fff;stroke:#000;stroke-miterlimit:10"/><path d="M765.1,578l6,13.2-20.3,8.9-3.2-7.1H706.7l-3.3,8H678.5l17.9-39H721l-7.3,16Zm-31.8-34.4L727.4,556H702.9l30.4-65.9L770.9,572H724l3.3-7H743Z" transform="translate(-177.5 -488.9)" style="fill:#fff;stroke:#000;stroke-miterlimit:10"/><path d="M835.6,545a23.9,23.9,0,0,1,17.3,7,22.7,22.7,0,0,1,7.1,17h6.2a29.6,29.6,0,0,1-9.2,22,30.8,30.8,0,0,1-22.2,9H786V578h48.9a8.5,8.5,0,0,0,6.4-2.7,8.7,8.7,0,0,0,2.7-6.4,8.3,8.3,0,0,0-2.7-6.3,8.8,8.8,0,0,0-6.4-2.6h-24a30.5,30.5,0,0,1-22.2-9.1,29.9,29.9,0,0,1-9.2-21.9h14.8c.2,4.2,2.5,8,6.8,11.2s8.9,4.8,13.3,4.8Zm-19.2-5a16.9,16.9,0,0,1-8.5-2.3,16.6,16.6,0,0,1-8.6-14.7h-15a29.4,29.4,0,0,1,9.4-21.9,30.5,30.5,0,0,1,22.2-9.1h55.5l-22,22H816.2a9.3,9.3,0,0,0-5.8,2,8.9,8.9,0,0,0-3.7,7.4,10.2,10.2,0,0,0,1.2,4.9,8.4,8.4,0,0,0,3.6,3.4,9,9,0,0,0,4.7,1.3h24.4a26.6,26.6,0,0,1,10.6,2.4,43.6,43.6,0,0,1,10.4,6.6c7,6.5,10.5,13.8,10.5,22h-6.7c-.3-6.2-3.1-11.8-8.4-16.7s-10.8-7.3-16.4-7.3Z" transform="translate(-177.5 -488.9)" style="fill:#fff;stroke:#000;stroke-miterlimit:10"/><path d="M901,520v29h7v51.1l-23-9.7V520Zm-10-25h23v47h-6V514H891Z" transform="translate(-177.5 -488.9)" style="fill:#fff;stroke:#000;stroke-miterlimit:10"/></svg>